<mxfile host="65bd71144e">
    <diagram name="state-machine" id="e7e014a7-5840-1c2e-5031-d8a46d1fe8dd">
        <mxGraphModel dx="844" dy="589" grid="1" gridSize="10" guides="1" tooltips="1" connect="1" arrows="1" fold="1" page="1" pageScale="1" pageWidth="1169" pageHeight="826" background="#ffffff" math="0" shadow="0">
            <root>
                <mxCell id="0"/>
                <mxCell id="1" parent="0"/>
                <mxCell id="Wtf9quvMSadWxM7qz9Bj-21" value="" style="rounded=1;whiteSpace=wrap;html=1;fontSize=10;dashed=1;fillColor=none;arcSize=4;" parent="1" vertex="1">
                    <mxGeometry x="120" y="120" width="480" height="400" as="geometry"/>
                </mxCell>
                <mxCell id="XOmBIF8bQWbwj0n87DCc-46" value="1" style="ellipse;whiteSpace=wrap;html=1;aspect=fixed;strokeColor=#00CC00;fillColor=#00CC00;fontColor=#FFFFFF;" parent="1" vertex="1">
                    <mxGeometry x="190" y="110" width="20" height="20" as="geometry"/>
                </mxCell>
                <mxCell id="XOmBIF8bQWbwj0n87DCc-51" value="" style="endArrow=classic;html=1;exitX=0.5;exitY=1;exitDx=0;exitDy=0;entryX=0.5;entryY=0;entryDx=0;entryDy=0;strokeColor=#00CC00;" parent="1" source="XOmBIF8bQWbwj0n87DCc-46" target="XOmBIF8bQWbwj0n87DCc-52" edge="1">
                    <mxGeometry x="120" y="110" width="50" height="50" as="geometry">
                        <mxPoint x="197" y="90" as="sourcePoint"/>
                        <mxPoint x="200" y="150" as="targetPoint"/>
                    </mxGeometry>
                </mxCell>
                <mxCell id="XOmBIF8bQWbwj0n87DCc-52" value="place order" style="rounded=1;whiteSpace=wrap;html=1;spacing=10;fontSize=10;strokeColor=#00CC00;" parent="1" vertex="1">
                    <mxGeometry x="160" y="160" width="80" height="40" as="geometry"/>
                </mxCell>
                <mxCell id="XOmBIF8bQWbwj0n87DCc-53" value="approve order" style="rounded=1;whiteSpace=wrap;html=1;spacing=10;fontSize=10;strokeColor=#00CC00;" parent="1" vertex="1">
                    <mxGeometry x="160" y="320" width="80" height="40" as="geometry"/>
                </mxCell>
                <mxCell id="XOmBIF8bQWbwj0n87DCc-54" value="reserve credit" style="rounded=1;whiteSpace=wrap;html=1;spacing=10;fontSize=10;verticalAlign=top;strokeColor=#00CC00;" parent="1" vertex="1">
                    <mxGeometry x="160" y="240" width="80" height="40" as="geometry"/>
                </mxCell>
                <mxCell id="XOmBIF8bQWbwj0n87DCc-55" value="undo&lt;br&gt;place order" style="rounded=1;whiteSpace=wrap;html=1;spacing=10;fontSize=10;strokeColor=#FF8000;" parent="1" vertex="1">
                    <mxGeometry x="440" y="400" width="80" height="40" as="geometry"/>
                </mxCell>
                <mxCell id="XOmBIF8bQWbwj0n87DCc-56" value="" style="endArrow=classic;html=1;exitX=1;exitY=0.5;exitDx=0;exitDy=0;edgeStyle=orthogonalEdgeStyle;strokeColor=#FF8000;entryX=0.5;entryY=0;entryDx=0;entryDy=0;" parent="1" source="XOmBIF8bQWbwj0n87DCc-54" target="XOmBIF8bQWbwj0n87DCc-55" edge="1">
                    <mxGeometry x="120" y="110" width="50" height="50" as="geometry">
                        <mxPoint x="280" y="290" as="sourcePoint"/>
                        <mxPoint x="310" y="280" as="targetPoint"/>
                    </mxGeometry>
                </mxCell>
                <mxCell id="Wtf9quvMSadWxM7qz9Bj-9" value="&lt;span style=&quot;color: rgb(9 , 8 , 8)&quot;&gt;[fail]&lt;/span&gt;" style="edgeLabel;html=1;align=center;verticalAlign=middle;resizable=0;points=[];fontSize=10;fontColor=#FFFFFF;" parent="XOmBIF8bQWbwj0n87DCc-56" vertex="1" connectable="0">
                    <mxGeometry x="-0.5845" relative="1" as="geometry">
                        <mxPoint x="1.21" y="-10.01" as="offset"/>
                    </mxGeometry>
                </mxCell>
                <mxCell id="XOmBIF8bQWbwj0n87DCc-57" value="" style="endArrow=classic;html=1;exitX=1;exitY=0.5;exitDx=0;exitDy=0;strokeColor=#FF8000;entryX=0;entryY=0.5;entryDx=0;entryDy=0;" parent="1" source="XOmBIF8bQWbwj0n87DCc-53" target="XOmBIF8bQWbwj0n87DCc-79" edge="1">
                    <mxGeometry x="120" y="110" width="50" height="50" as="geometry">
                        <mxPoint x="250" y="270" as="sourcePoint"/>
                        <mxPoint x="300" y="310" as="targetPoint"/>
                        <Array as="points"/>
                    </mxGeometry>
                </mxCell>
                <mxCell id="Wtf9quvMSadWxM7qz9Bj-12" value="&lt;span style=&quot;color: rgb(9 , 8 , 8)&quot;&gt;[fail]&lt;/span&gt;" style="edgeLabel;html=1;align=center;verticalAlign=middle;resizable=0;points=[];fontSize=10;fontColor=#FFFFFF;" parent="XOmBIF8bQWbwj0n87DCc-57" vertex="1" connectable="0">
                    <mxGeometry x="-0.1583" y="-1" relative="1" as="geometry">
                        <mxPoint x="6.06" y="-11" as="offset"/>
                    </mxGeometry>
                </mxCell>
                <mxCell id="XOmBIF8bQWbwj0n87DCc-63" value="" style="endArrow=classic;html=1;entryX=0.5;entryY=-0.187;entryDx=0;entryDy=0;exitX=0.5;exitY=1;exitDx=0;exitDy=0;entryPerimeter=0;strokeColor=#00CC00;" parent="1" source="XOmBIF8bQWbwj0n87DCc-53" target="XOmBIF8bQWbwj0n87DCc-62" edge="1">
                    <mxGeometry x="120" y="110" width="50" height="50" as="geometry">
                        <mxPoint x="140" y="440" as="sourcePoint"/>
                        <mxPoint x="90" y="380" as="targetPoint"/>
                    </mxGeometry>
                </mxCell>
                <mxCell id="Wtf9quvMSadWxM7qz9Bj-8" value="&lt;span style=&quot;color: rgb(9 , 8 , 8)&quot;&gt;[success]&lt;/span&gt;" style="edgeLabel;html=1;align=center;verticalAlign=middle;resizable=0;points=[];fontSize=10;fontColor=#FFFFFF;" parent="XOmBIF8bQWbwj0n87DCc-63" vertex="1" connectable="0">
                    <mxGeometry x="-0.1781" relative="1" as="geometry">
                        <mxPoint as="offset"/>
                    </mxGeometry>
                </mxCell>
                <mxCell id="XOmBIF8bQWbwj0n87DCc-64" value="" style="endArrow=classic;html=1;exitX=0.5;exitY=1;exitDx=0;exitDy=0;strokeColor=#00CC00;" parent="1" source="XOmBIF8bQWbwj0n87DCc-52" target="XOmBIF8bQWbwj0n87DCc-54" edge="1">
                    <mxGeometry x="120" y="110" width="50" height="50" as="geometry">
                        <mxPoint x="250" y="190" as="sourcePoint"/>
                        <mxPoint x="330" y="190" as="targetPoint"/>
                    </mxGeometry>
                </mxCell>
                <mxCell id="Wtf9quvMSadWxM7qz9Bj-4" value="&lt;font color=&quot;#090808&quot;&gt;[success]&lt;/font&gt;" style="edgeLabel;html=1;align=center;verticalAlign=middle;resizable=0;points=[];fontSize=10;fontColor=#FFFFFF;" parent="XOmBIF8bQWbwj0n87DCc-64" vertex="1" connectable="0">
                    <mxGeometry x="-0.2894" relative="1" as="geometry">
                        <mxPoint as="offset"/>
                    </mxGeometry>
                </mxCell>
                <mxCell id="XOmBIF8bQWbwj0n87DCc-65" value="" style="endArrow=classic;html=1;exitX=0.5;exitY=1;exitDx=0;exitDy=0;entryX=0.5;entryY=0;entryDx=0;entryDy=0;strokeColor=#00CC00;" parent="1" source="XOmBIF8bQWbwj0n87DCc-54" target="XOmBIF8bQWbwj0n87DCc-53" edge="1">
                    <mxGeometry x="120" y="110" width="50" height="50" as="geometry">
                        <mxPoint x="210" y="210" as="sourcePoint"/>
                        <mxPoint x="210" y="250" as="targetPoint"/>
                    </mxGeometry>
                </mxCell>
                <mxCell id="Wtf9quvMSadWxM7qz9Bj-7" value="&lt;span style=&quot;color: rgb(9 , 8 , 8)&quot;&gt;[success]&lt;/span&gt;" style="edgeLabel;html=1;align=center;verticalAlign=middle;resizable=0;points=[];fontSize=10;fontColor=#FFFFFF;" parent="XOmBIF8bQWbwj0n87DCc-65" vertex="1" connectable="0">
                    <mxGeometry x="-0.0773" relative="1" as="geometry">
                        <mxPoint as="offset"/>
                    </mxGeometry>
                </mxCell>
                <mxCell id="XOmBIF8bQWbwj0n87DCc-69" value="" style="endArrow=classic;html=1;strokeColor=#CC0000;entryX=0.5;entryY=0;entryDx=0;entryDy=0;exitX=0.75;exitY=1;exitDx=0;exitDy=0;edgeStyle=orthogonalEdgeStyle;" parent="1" source="XOmBIF8bQWbwj0n87DCc-55" target="XOmBIF8bQWbwj0n87DCc-67" edge="1">
                    <mxGeometry x="120" y="110" width="50" height="50" as="geometry">
                        <mxPoint x="510" y="450" as="sourcePoint"/>
                        <mxPoint x="480" y="480" as="targetPoint"/>
                    </mxGeometry>
                </mxCell>
                <mxCell id="Wtf9quvMSadWxM7qz9Bj-14" value="&lt;span style=&quot;color: rgb(9 , 8 , 8)&quot;&gt;[fail]&lt;/span&gt;" style="edgeLabel;html=1;align=center;verticalAlign=middle;resizable=0;points=[];fontSize=10;fontColor=#FFFFFF;" parent="XOmBIF8bQWbwj0n87DCc-69" vertex="1" connectable="0">
                    <mxGeometry x="-0.3279" relative="1" as="geometry">
                        <mxPoint x="10.91" y="-13.97" as="offset"/>
                    </mxGeometry>
                </mxCell>
                <mxCell id="XOmBIF8bQWbwj0n87DCc-79" value="undo &lt;br&gt;reserve credit" style="rounded=1;whiteSpace=wrap;html=1;spacing=10;fontSize=10;strokeColor=#FF8000;" parent="1" vertex="1">
                    <mxGeometry x="320" y="320" width="80" height="40" as="geometry"/>
                </mxCell>
                <mxCell id="XOmBIF8bQWbwj0n87DCc-80" value="" style="endArrow=classic;html=1;exitX=1;exitY=0.5;exitDx=0;exitDy=0;strokeColor=#FF8000;entryX=0.25;entryY=0;entryDx=0;entryDy=0;" parent="1" source="XOmBIF8bQWbwj0n87DCc-79" target="XOmBIF8bQWbwj0n87DCc-55" edge="1">
                    <mxGeometry x="120" y="110" width="50" height="50" as="geometry">
                        <mxPoint x="290" y="350" as="sourcePoint"/>
                        <mxPoint x="330" y="350" as="targetPoint"/>
                        <Array as="points">
                            <mxPoint x="460" y="340"/>
                        </Array>
                    </mxGeometry>
                </mxCell>
                <mxCell id="Wtf9quvMSadWxM7qz9Bj-10" value="&lt;span style=&quot;color: rgb(9 , 8 , 8)&quot;&gt;[success]&lt;/span&gt;" style="edgeLabel;html=1;align=center;verticalAlign=middle;resizable=0;points=[];fontSize=10;fontColor=#FFFFFF;" parent="XOmBIF8bQWbwj0n87DCc-80" vertex="1" connectable="0">
                    <mxGeometry x="-0.55" y="-1" relative="1" as="geometry">
                        <mxPoint x="2.73" y="-11" as="offset"/>
                    </mxGeometry>
                </mxCell>
                <mxCell id="XOmBIF8bQWbwj0n87DCc-81" value="&lt;span style=&quot;color: rgb(9 , 8 , 8) ; font-size: 10px&quot;&gt;[fail]&lt;/span&gt;" style="endArrow=classic;html=1;strokeColor=#CC0000;exitX=0.5;exitY=1;exitDx=0;exitDy=0;entryX=0.5;entryY=0;entryDx=0;entryDy=0;" parent="1" source="XOmBIF8bQWbwj0n87DCc-55" target="XOmBIF8bQWbwj0n87DCc-83" edge="1">
                    <mxGeometry x="120" y="110" width="50" height="50" as="geometry">
                        <mxPoint x="510" y="450" as="sourcePoint"/>
                        <mxPoint x="480" y="480" as="targetPoint"/>
                    </mxGeometry>
                </mxCell>
                <mxCell id="Wtf9quvMSadWxM7qz9Bj-2" value="" style="endArrow=classic;html=1;strokeColor=#CC0000;entryX=0;entryY=0.5;entryDx=0;entryDy=0;exitX=0.5;exitY=1;exitDx=0;exitDy=0;" parent="1" source="XOmBIF8bQWbwj0n87DCc-79" target="XOmBIF8bQWbwj0n87DCc-55" edge="1">
                    <mxGeometry x="120" y="110" width="50" height="50" as="geometry">
                        <mxPoint x="390" y="440" as="sourcePoint"/>
                        <mxPoint x="490" y="490" as="targetPoint"/>
                        <Array as="points">
                            <mxPoint x="360" y="420"/>
                        </Array>
                    </mxGeometry>
                </mxCell>
                <mxCell id="Wtf9quvMSadWxM7qz9Bj-11" value="&lt;span style=&quot;color: rgb(9 , 8 , 8)&quot;&gt;[fail]&lt;/span&gt;" style="edgeLabel;html=1;align=center;verticalAlign=middle;resizable=0;points=[];fontSize=10;fontColor=#FFFFFF;" parent="Wtf9quvMSadWxM7qz9Bj-2" vertex="1" connectable="0">
                    <mxGeometry x="-0.5113" y="2" relative="1" as="geometry">
                        <mxPoint x="-2" y="-13.94" as="offset"/>
                    </mxGeometry>
                </mxCell>
                <mxCell id="Wtf9quvMSadWxM7qz9Bj-16" value="" style="group" parent="1" vertex="1" connectable="0">
                    <mxGeometry x="550" y="508" width="20" height="20" as="geometry"/>
                </mxCell>
                <mxCell id="XOmBIF8bQWbwj0n87DCc-66" value="" style="group" parent="Wtf9quvMSadWxM7qz9Bj-16" vertex="1" connectable="0">
                    <mxGeometry width="20" height="20" as="geometry"/>
                </mxCell>
                <mxCell id="XOmBIF8bQWbwj0n87DCc-67" value="" style="ellipse;whiteSpace=wrap;html=1;aspect=fixed;strokeColor=#CC0000;" parent="XOmBIF8bQWbwj0n87DCc-66" vertex="1">
                    <mxGeometry width="20" height="20" as="geometry"/>
                </mxCell>
                <mxCell id="XOmBIF8bQWbwj0n87DCc-68" value="&lt;font color=&quot;#ffffff&quot;&gt;D&lt;/font&gt;" style="ellipse;whiteSpace=wrap;html=1;aspect=fixed;fillColor=#CC0000;strokeColor=#CC0000;" parent="XOmBIF8bQWbwj0n87DCc-66" vertex="1">
                    <mxGeometry x="2" y="2" width="16" height="16" as="geometry"/>
                </mxCell>
                <mxCell id="Wtf9quvMSadWxM7qz9Bj-17" value="" style="group" parent="1" vertex="1" connectable="0">
                    <mxGeometry x="470" y="510" width="20" height="20" as="geometry"/>
                </mxCell>
                <mxCell id="XOmBIF8bQWbwj0n87DCc-82" value="" style="group" parent="Wtf9quvMSadWxM7qz9Bj-17" vertex="1" connectable="0">
                    <mxGeometry width="20" height="20" as="geometry"/>
                </mxCell>
                <mxCell id="XOmBIF8bQWbwj0n87DCc-83" value="" style="ellipse;whiteSpace=wrap;html=1;aspect=fixed;strokeColor=#CC0000;" parent="XOmBIF8bQWbwj0n87DCc-82" vertex="1">
                    <mxGeometry width="20" height="20" as="geometry"/>
                </mxCell>
                <mxCell id="XOmBIF8bQWbwj0n87DCc-84" value="&lt;font color=&quot;#ffffff&quot;&gt;C&lt;/font&gt;" style="ellipse;whiteSpace=wrap;html=1;aspect=fixed;fillColor=#CC0000;strokeColor=#CC0000;" parent="XOmBIF8bQWbwj0n87DCc-82" vertex="1">
                    <mxGeometry x="2" y="2" width="16" height="16" as="geometry"/>
                </mxCell>
                <mxCell id="Wtf9quvMSadWxM7qz9Bj-18" value="" style="group" parent="1" vertex="1" connectable="0">
                    <mxGeometry x="390" y="508" width="20" height="20" as="geometry"/>
                </mxCell>
                <mxCell id="XOmBIF8bQWbwj0n87DCc-49" value="B" style="group" parent="Wtf9quvMSadWxM7qz9Bj-18" vertex="1" connectable="0">
                    <mxGeometry width="20" height="20" as="geometry"/>
                </mxCell>
                <mxCell id="XOmBIF8bQWbwj0n87DCc-47" value="" style="ellipse;whiteSpace=wrap;html=1;aspect=fixed;strokeColor=#FF8000;" parent="XOmBIF8bQWbwj0n87DCc-49" vertex="1">
                    <mxGeometry width="20" height="20" as="geometry"/>
                </mxCell>
                <mxCell id="XOmBIF8bQWbwj0n87DCc-48" value="B" style="ellipse;whiteSpace=wrap;html=1;aspect=fixed;fillColor=#FF8000;strokeColor=#FF8000;fontColor=#FFFFFF;" parent="XOmBIF8bQWbwj0n87DCc-49" vertex="1">
                    <mxGeometry x="2" y="2" width="16" height="16" as="geometry"/>
                </mxCell>
                <mxCell id="XOmBIF8bQWbwj0n87DCc-50" value="" style="endArrow=classic;html=1;entryX=0.5;entryY=0;entryDx=0;entryDy=0;exitX=0.25;exitY=1;exitDx=0;exitDy=0;strokeColor=#FF8000;edgeStyle=orthogonalEdgeStyle;" parent="1" source="XOmBIF8bQWbwj0n87DCc-55" target="XOmBIF8bQWbwj0n87DCc-47" edge="1">
                    <mxGeometry x="120" y="110" width="50" height="50" as="geometry">
                        <mxPoint x="520" y="420" as="sourcePoint"/>
                        <mxPoint x="470" y="360" as="targetPoint"/>
                    </mxGeometry>
                </mxCell>
                <mxCell id="Wtf9quvMSadWxM7qz9Bj-15" value="&lt;span style=&quot;color: rgb(9 , 8 , 8)&quot;&gt;[success]&lt;/span&gt;" style="edgeLabel;html=1;align=center;verticalAlign=middle;resizable=0;points=[];fontSize=10;fontColor=#FFFFFF;" parent="XOmBIF8bQWbwj0n87DCc-50" vertex="1" connectable="0">
                    <mxGeometry x="-0.0867" y="-2" relative="1" as="geometry">
                        <mxPoint x="-5.82" y="-11.97" as="offset"/>
                    </mxGeometry>
                </mxCell>
                <mxCell id="Wtf9quvMSadWxM7qz9Bj-19" value="" style="group" parent="1" vertex="1" connectable="0">
                    <mxGeometry x="190" y="510" width="20" height="20" as="geometry"/>
                </mxCell>
                <mxCell id="XOmBIF8bQWbwj0n87DCc-60" value="" style="group;fontColor=#FFFFFF;" parent="Wtf9quvMSadWxM7qz9Bj-19" vertex="1" connectable="0">
                    <mxGeometry width="20" height="20" as="geometry"/>
                </mxCell>
                <mxCell id="XOmBIF8bQWbwj0n87DCc-61" value="" style="ellipse;whiteSpace=wrap;html=1;aspect=fixed;strokeColor=#00CC00;" parent="XOmBIF8bQWbwj0n87DCc-60" vertex="1">
                    <mxGeometry width="20" height="20" as="geometry"/>
                </mxCell>
                <mxCell id="XOmBIF8bQWbwj0n87DCc-62" value="A" style="ellipse;whiteSpace=wrap;html=1;aspect=fixed;fillColor=#00CC00;strokeColor=#00CC00;fontColor=#FFFFFF;" parent="XOmBIF8bQWbwj0n87DCc-60" vertex="1">
                    <mxGeometry x="2" y="2" width="16" height="16" as="geometry"/>
                </mxCell>
            </root>
        </mxGraphModel>
    </diagram>
</mxfile>